<mxfile host="65bd71144e">
    <diagram id="JyZvL8UAVLS7vksvKAZD" name="Page-1">
        <mxGraphModel dx="2441" dy="2099" grid="1" gridSize="10" guides="1" tooltips="1" connect="1" arrows="1" fold="1" page="1" pageScale="1" pageWidth="827" pageHeight="1169" background="#1E1E1E" math="0" shadow="0">
            <root>
                <mxCell id="0"/>
                <mxCell id="1" parent="0"/>
                <mxCell id="2" value="&lt;p style=&quot;margin:0px;margin-top:4px;text-align:center;&quot;&gt;&lt;span&gt;&lt;font&gt;Usuario&lt;/font&gt;&lt;/span&gt;&lt;/p&gt;&lt;hr size=&quot;1&quot;&gt;&lt;font&gt;- id: number&lt;br&gt;&lt;span style=&quot;background-color: initial;&quot;&gt;- nome: String&lt;br&gt;- dataNascimento: Date&lt;br&gt;&lt;/span&gt;- email: String&lt;br&gt;- password: String&lt;br&gt;- tipoUsuario: Enum&lt;br&gt;- endereço: String&lt;br&gt;- numeroCelular: String&lt;br&gt;&lt;/font&gt;&lt;hr size=&quot;1&quot;&gt;&lt;p style=&quot;margin:0px;margin-left:4px;&quot;&gt;&lt;font&gt;+ getId(): number&lt;/font&gt;&lt;/p&gt;&lt;p style=&quot;margin:0px;margin-left:4px;&quot;&gt;&lt;font&gt;+ getNome(number): String&lt;br&gt;&lt;/font&gt;&lt;/p&gt;&lt;p style=&quot;margin:0px;margin-left:4px;&quot;&gt;&lt;font&gt;+ setPassword(String): void&lt;br&gt;&lt;/font&gt;&lt;/p&gt;&lt;p style=&quot;margin:0px;margin-left:4px;&quot;&gt;&lt;br&gt;&lt;/p&gt;" style="verticalAlign=top;align=left;overflow=fill;fontSize=12;fontFamily=Architects Daughter;html=1;sketch=1;hachureGap=4;jiggle=2;curveFitting=1;fontSource=https%3A%2F%2Ffonts.googleapis.com%2Fcss%3Ffamily%3DArchitects%2BDaughter;gradientDirection=radial;fillColor=#60a917;strokeColor=#2D7600;rounded=1;fontStyle=1;fontColor=#ffffff;" parent="1" vertex="1">
                    <mxGeometry x="80" y="120" width="200" height="210" as="geometry"/>
                </mxCell>
                <mxCell id="3" value="&lt;p style=&quot;margin:0px;margin-top:4px;text-align:center;&quot;&gt;&lt;span&gt;Aluno&lt;/span&gt;&lt;/p&gt;&lt;hr size=&quot;1&quot;&gt;&lt;p style=&quot;margin:0px;margin-left:4px;&quot;&gt;- intituição/escola: String&lt;/p&gt;&lt;p style=&quot;margin:0px;margin-left:4px;&quot;&gt;- numerocelularFamiliar: String&lt;/p&gt;&lt;hr size=&quot;1&quot;&gt;&lt;p style=&quot;margin:0px;margin-left:4px;&quot;&gt;+ method(): Type&lt;/p&gt;" style="verticalAlign=top;align=left;overflow=fill;fontSize=12;fontFamily=Architects Daughter;html=1;sketch=1;hachureGap=4;jiggle=2;curveFitting=1;fontSource=https%3A%2F%2Ffonts.googleapis.com%2Fcss%3Ffamily%3DArchitects%2BDaughter;gradientDirection=radial;fillColor=#60a917;fontColor=#ffffff;strokeColor=#2D7600;rounded=1;fontStyle=1" parent="1" vertex="1">
                    <mxGeometry x="-40" y="400" width="190" height="130" as="geometry"/>
                </mxCell>
                <mxCell id="4" value="&lt;p style=&quot;margin:0px;margin-top:4px;text-align:center;&quot;&gt;&lt;span&gt;Administrador&lt;/span&gt;&lt;/p&gt;&lt;hr size=&quot;1&quot;&gt;&lt;p style=&quot;margin:0px;margin-left:4px;&quot;&gt;+ field: Type&lt;/p&gt;&lt;hr size=&quot;1&quot;&gt;&lt;p style=&quot;margin:0px;margin-left:4px;&quot;&gt;+ method(): Type&lt;/p&gt;" style="verticalAlign=top;align=left;overflow=fill;fontSize=12;fontFamily=Architects Daughter;html=1;sketch=1;hachureGap=4;jiggle=2;curveFitting=1;fontSource=https%3A%2F%2Ffonts.googleapis.com%2Fcss%3Ffamily%3DArchitects%2BDaughter;gradientDirection=radial;fillColor=#60a917;fontColor=#ffffff;strokeColor=#2D7600;rounded=1;fontStyle=1" parent="1" vertex="1">
                    <mxGeometry x="230" y="420" width="160" height="90" as="geometry"/>
                </mxCell>
                <mxCell id="5" value="&lt;p style=&quot;margin:0px;margin-top:4px;text-align:center;&quot;&gt;&lt;span&gt;Motorista&lt;/span&gt;&lt;/p&gt;&lt;hr size=&quot;1&quot;&gt;&lt;p style=&quot;margin:0px;margin-left:4px;&quot;&gt;+ field: Type&lt;/p&gt;&lt;hr size=&quot;1&quot;&gt;&lt;p style=&quot;margin:0px;margin-left:4px;&quot;&gt;+ method(): Type&lt;/p&gt;" style="verticalAlign=top;align=left;overflow=fill;fontSize=12;fontFamily=Architects Daughter;html=1;sketch=1;hachureGap=4;jiggle=2;curveFitting=1;fontSource=https%3A%2F%2Ffonts.googleapis.com%2Fcss%3Ffamily%3DArchitects%2BDaughter;gradientDirection=radial;fillColor=#60a917;fontColor=#ffffff;strokeColor=#2D7600;rounded=1;fontStyle=1" parent="1" vertex="1">
                    <mxGeometry x="450" y="420" width="160" height="90" as="geometry"/>
                </mxCell>
                <mxCell id="6" value="&lt;p style=&quot;margin:0px;margin-top:4px;text-align:center;&quot;&gt;&lt;span&gt;Horario&lt;/span&gt;&lt;/p&gt;&lt;hr size=&quot;1&quot;&gt;&lt;p style=&quot;margin:0px;margin-left:4px;&quot;&gt;- id: number&lt;/p&gt;&lt;p style=&quot;margin:0px;margin-left:4px;&quot;&gt;- horarioSaida: timestamp&lt;/p&gt;&lt;p style=&quot;margin:0px;margin-left:4px;&quot;&gt;- horarioChegada: timestamp&lt;br&gt;&lt;/p&gt;&lt;p style=&quot;margin:0px;margin-left:4px;&quot;&gt;- idMotorista: number&lt;/p&gt;&lt;p style=&quot;margin:0px;margin-left:4px;&quot;&gt;- idOnibus: number&lt;br&gt;&lt;/p&gt;&lt;hr size=&quot;1&quot;&gt;&lt;p style=&quot;margin:0px;margin-left:4px;&quot;&gt;+ method(): Type&lt;/p&gt;" style="verticalAlign=top;align=left;overflow=fill;fontSize=12;fontFamily=Architects Daughter;html=1;sketch=1;hachureGap=4;jiggle=2;curveFitting=1;fontSource=https%3A%2F%2Ffonts.googleapis.com%2Fcss%3Ffamily%3DArchitects%2BDaughter;gradientDirection=radial;fillColor=#60a917;fontColor=#ffffff;strokeColor=#2D7600;rounded=1;fontStyle=1" parent="1" vertex="1">
                    <mxGeometry x="-290" y="380" width="180" height="170" as="geometry"/>
                </mxCell>
                <mxCell id="7" value="&lt;p style=&quot;margin:0px;margin-top:4px;text-align:center;&quot;&gt;&lt;span&gt;Documento&lt;/span&gt;&lt;/p&gt;&lt;hr size=&quot;1&quot;&gt;&lt;p style=&quot;margin:0px;margin-left:4px;&quot;&gt;- idAluno: number&lt;/p&gt;&lt;p style=&quot;margin:0px;margin-left:4px;&quot;&gt;- formato:String&lt;/p&gt;&lt;p style=&quot;margin:0px;margin-left:4px;&quot;&gt;&lt;br&gt;&lt;/p&gt;&lt;hr size=&quot;1&quot;&gt;&lt;p style=&quot;margin:0px;margin-left:4px;&quot;&gt;+ method(): Type&lt;/p&gt;" style="verticalAlign=top;align=left;overflow=fill;fontSize=12;fontFamily=Architects Daughter;html=1;sketch=1;hachureGap=4;jiggle=2;curveFitting=1;fontSource=https%3A%2F%2Ffonts.googleapis.com%2Fcss%3Ffamily%3DArchitects%2BDaughter;gradientDirection=radial;fillColor=#60a917;fontColor=#ffffff;strokeColor=#2D7600;rounded=1;fontStyle=1" parent="1" vertex="1">
                    <mxGeometry x="-25" y="585" width="160" height="115" as="geometry"/>
                </mxCell>
                <mxCell id="8" value="&lt;p style=&quot;margin:0px;margin-top:4px;text-align:center;&quot;&gt;&lt;span&gt;Onibus&lt;/span&gt;&lt;/p&gt;&lt;hr size=&quot;1&quot;&gt;&lt;p style=&quot;margin:0px;margin-left:4px;&quot;&gt;- id: number&lt;/p&gt;&lt;p style=&quot;margin:0px;margin-left:4px;&quot;&gt;- ativo: boolean&lt;/p&gt;&lt;p style=&quot;margin:0px;margin-left:4px;&quot;&gt;- capacidade : number&lt;/p&gt;&lt;p style=&quot;margin:0px;margin-left:4px;&quot;&gt;- id_motorista: number&lt;/p&gt;&lt;p style=&quot;margin:0px;margin-left:4px;&quot;&gt;- notificação: String&lt;/p&gt;&lt;hr size=&quot;1&quot;&gt;&lt;p style=&quot;margin:0px;margin-left:4px;&quot;&gt;+ method(): Type&lt;/p&gt;" style="verticalAlign=top;align=left;overflow=fill;fontSize=12;fontFamily=Architects Daughter;html=1;sketch=1;hachureGap=4;jiggle=2;curveFitting=1;fontSource=https%3A%2F%2Ffonts.googleapis.com%2Fcss%3Ffamily%3DArchitects%2BDaughter;gradientDirection=radial;fillColor=#60a917;fontColor=#ffffff;strokeColor=#2D7600;rounded=1;fontStyle=1" parent="1" vertex="1">
                    <mxGeometry x="-280" y="670" width="160" height="160" as="geometry"/>
                </mxCell>
                <mxCell id="9" value="Extends" style="endArrow=block;endSize=16;endFill=0;html=1;sketch=1;hachureGap=4;jiggle=2;curveFitting=1;fontFamily=Architects Daughter;fontSource=https%3A%2F%2Ffonts.googleapis.com%2Fcss%3Ffamily%3DArchitects%2BDaughter;fontSize=16;exitX=0.5;exitY=0;exitDx=0;exitDy=0;entryX=0.5;entryY=1;entryDx=0;entryDy=0;fontColor=#000000;fontStyle=1;labelBackgroundColor=none;" parent="1" source="3" target="2" edge="1">
                    <mxGeometry width="160" relative="1" as="geometry">
                        <mxPoint x="160" y="370" as="sourcePoint"/>
                        <mxPoint x="320" y="370" as="targetPoint"/>
                    </mxGeometry>
                </mxCell>
                <mxCell id="10" value="Extends" style="endArrow=block;endSize=16;endFill=0;html=1;sketch=1;hachureGap=4;jiggle=2;curveFitting=1;fontFamily=Architects Daughter;fontSource=https%3A%2F%2Ffonts.googleapis.com%2Fcss%3Ffamily%3DArchitects%2BDaughter;fontSize=16;exitX=0.5;exitY=0;exitDx=0;exitDy=0;entryX=0.5;entryY=1;entryDx=0;entryDy=0;fontColor=#000000;fontStyle=1;labelBackgroundColor=none;" parent="1" source="4" target="2" edge="1">
                    <mxGeometry width="160" relative="1" as="geometry">
                        <mxPoint x="350" y="370" as="sourcePoint"/>
                        <mxPoint x="370" y="220" as="targetPoint"/>
                    </mxGeometry>
                </mxCell>
                <mxCell id="11" value="Extends" style="endArrow=block;endSize=16;endFill=0;html=1;sketch=1;hachureGap=4;jiggle=2;curveFitting=1;fontFamily=Architects Daughter;fontSource=https%3A%2F%2Ffonts.googleapis.com%2Fcss%3Ffamily%3DArchitects%2BDaughter;fontSize=16;exitX=0.5;exitY=0;exitDx=0;exitDy=0;entryX=0.5;entryY=1;entryDx=0;entryDy=0;fontColor=#000000;fontStyle=1;labelBackgroundColor=none;" parent="1" source="5" target="2" edge="1">
                    <mxGeometry width="160" relative="1" as="geometry">
                        <mxPoint x="404" y="410" as="sourcePoint"/>
                        <mxPoint x="424" y="260" as="targetPoint"/>
                    </mxGeometry>
                </mxCell>
                <mxCell id="15" value="" style="endArrow=diamondThin;endFill=1;endSize=24;html=1;sketch=1;hachureGap=4;jiggle=2;curveFitting=1;fontFamily=Architects Daughter;fontSource=https%3A%2F%2Ffonts.googleapis.com%2Fcss%3Ffamily%3DArchitects%2BDaughter;fontSize=16;entryX=0.25;entryY=0;entryDx=0;entryDy=0;exitX=0.25;exitY=1;exitDx=0;exitDy=0;fontColor=#000000;fontStyle=1" parent="1" source="6" target="8" edge="1">
                    <mxGeometry width="160" relative="1" as="geometry">
                        <mxPoint x="-560" y="414.9999999999999" as="sourcePoint"/>
                        <mxPoint x="-390" y="635" as="targetPoint"/>
                    </mxGeometry>
                </mxCell>
                <mxCell id="17" value="" style="endArrow=block;startArrow=block;endFill=1;startFill=1;html=1;sketch=1;hachureGap=4;jiggle=2;curveFitting=1;fontFamily=Architects Daughter;fontSource=https%3A%2F%2Ffonts.googleapis.com%2Fcss%3Ffamily%3DArchitects%2BDaughter;fontSize=16;entryX=0.5;entryY=1;entryDx=0;entryDy=0;exitX=1;exitY=0.5;exitDx=0;exitDy=0;fontColor=#000000;fontStyle=1" parent="1" source="8" target="5" edge="1">
                    <mxGeometry width="160" relative="1" as="geometry">
                        <mxPoint x="-100" y="730" as="sourcePoint"/>
                        <mxPoint y="759.9999999999999" as="targetPoint"/>
                        <Array as="points">
                            <mxPoint x="530" y="750"/>
                        </Array>
                    </mxGeometry>
                </mxCell>
                <mxCell id="18" value="" style="endArrow=block;startArrow=block;endFill=1;startFill=1;html=1;sketch=1;hachureGap=4;jiggle=2;curveFitting=1;fontFamily=Architects Daughter;fontSource=https%3A%2F%2Ffonts.googleapis.com%2Fcss%3Ffamily%3DArchitects%2BDaughter;fontSize=16;exitX=0.5;exitY=1;exitDx=0;exitDy=0;entryX=0.5;entryY=0;entryDx=0;entryDy=0;fontColor=#000000;fontStyle=1" parent="1" source="3" target="7" edge="1">
                    <mxGeometry width="160" relative="1" as="geometry">
                        <mxPoint x="-120" y="530" as="sourcePoint"/>
                        <mxPoint x="-30" y="530" as="targetPoint"/>
                    </mxGeometry>
                </mxCell>
                <mxCell id="19" value="" style="endArrow=block;startArrow=block;endFill=1;startFill=1;html=1;sketch=1;hachureGap=4;jiggle=2;curveFitting=1;fontFamily=Architects Daughter;fontSource=https%3A%2F%2Ffonts.googleapis.com%2Fcss%3Ffamily%3DArchitects%2BDaughter;fontSize=16;exitX=0.75;exitY=1;exitDx=0;exitDy=0;entryX=0;entryY=0;entryDx=0;entryDy=0;fontColor=#000000;fontStyle=1" parent="1" source="6" target="7" edge="1">
                    <mxGeometry width="160" relative="1" as="geometry">
                        <mxPoint x="-120" y="500" as="sourcePoint"/>
                        <mxPoint x="-120" y="570" as="targetPoint"/>
                    </mxGeometry>
                </mxCell>
                <mxCell id="20" value="&lt;ul style=&quot;font-size: 30px;&quot;&gt;&lt;li&gt;Usurios do tipo aluno devem se cadastrar normalmente;&lt;/li&gt;&lt;li&gt;Deverá ter um admin para cadastrar outros admins;&lt;/li&gt;&lt;li&gt;Motorista não deve se cadastrar, administrador que deve cadastrar ele;&lt;/li&gt;&lt;li&gt;&lt;br&gt;&lt;/li&gt;&lt;li&gt;O Onibus deve ser cadastrado com um horario base de funcionamento;&lt;/li&gt;&lt;li&gt;O onibus não poderá ter sua capacidade de alunos ecedida;&lt;/li&gt;&lt;li&gt;O onibus deverá informar quando não ficar ativo, por quebra etc ...&lt;/li&gt;&lt;/ul&gt;" style="text;strokeColor=none;fillColor=none;html=1;whiteSpace=wrap;verticalAlign=top;overflow=hidden;sketch=1;hachureGap=4;jiggle=2;curveFitting=1;fontFamily=Architects Daughter;fontSource=https%3A%2F%2Ffonts.googleapis.com%2Fcss%3Ffamily%3DArchitects%2BDaughter;fontSize=20;fontColor=#000000;fontStyle=1" parent="1" vertex="1">
                    <mxGeometry x="710" y="120" width="1320" height="500" as="geometry"/>
                </mxCell>
                <mxCell id="21" value="" style="endArrow=diamondThin;endFill=0;endSize=24;html=1;labelBackgroundColor=none;sketch=1;hachureGap=4;jiggle=2;curveFitting=1;fontFamily=Architects Daughter;fontSource=https%3A%2F%2Ffonts.googleapis.com%2Fcss%3Ffamily%3DArchitects%2BDaughter;fontSize=30;fontColor=#171717;entryX=1;entryY=0.5;entryDx=0;entryDy=0;exitX=0;exitY=0.5;exitDx=0;exitDy=0;" parent="1" source="3" target="6" edge="1">
                    <mxGeometry width="160" relative="1" as="geometry">
                        <mxPoint x="-80" y="550" as="sourcePoint"/>
                        <mxPoint x="-80" y="450" as="targetPoint"/>
                    </mxGeometry>
                </mxCell>
                <mxCell id="22" value="Implementado Repository" style="text;html=1;strokeColor=none;fillColor=none;align=center;verticalAlign=middle;whiteSpace=wrap;rounded=0;sketch=1;hachureGap=4;jiggle=2;curveFitting=1;fontFamily=Architects Daughter;fontSource=https%3A%2F%2Ffonts.googleapis.com%2Fcss%3Ffamily%3DArchitects%2BDaughter;fontSize=24;" parent="1" vertex="1">
                    <mxGeometry x="2250" y="70" width="280" height="30" as="geometry"/>
                </mxCell>
                <mxCell id="23" value="Implementado Entidade" style="text;html=1;strokeColor=none;fillColor=none;align=center;verticalAlign=middle;whiteSpace=wrap;rounded=0;sketch=1;hachureGap=4;jiggle=2;curveFitting=1;fontFamily=Architects Daughter;fontSource=https%3A%2F%2Ffonts.googleapis.com%2Fcss%3Ffamily%3DArchitects%2BDaughter;fontSize=24;" parent="1" vertex="1">
                    <mxGeometry x="2450" y="200" width="280" height="30" as="geometry"/>
                </mxCell>
                <mxCell id="24" value="" style="curved=1;endArrow=classic;html=1;sketch=1;hachureGap=4;jiggle=2;curveFitting=1;fontFamily=Architects Daughter;fontSource=https%3A%2F%2Ffonts.googleapis.com%2Fcss%3Ffamily%3DArchitects%2BDaughter;fontSize=16;fillColor=#60a917;strokeColor=#2D7600;" parent="1" edge="1">
                    <mxGeometry width="50" height="50" relative="1" as="geometry">
                        <mxPoint x="2700" y="200" as="sourcePoint"/>
                        <mxPoint x="2520" y="60" as="targetPoint"/>
                        <Array as="points">
                            <mxPoint x="2740" y="140"/>
                            <mxPoint x="2720" y="80"/>
                            <mxPoint x="2660" y="20"/>
                            <mxPoint x="2570" y="30"/>
                        </Array>
                    </mxGeometry>
                </mxCell>
                <mxCell id="25" value="Implementado Serviço" style="text;html=1;strokeColor=none;fillColor=none;align=center;verticalAlign=middle;whiteSpace=wrap;rounded=0;sketch=1;hachureGap=4;jiggle=2;curveFitting=1;fontFamily=Architects Daughter;fontSource=https%3A%2F%2Ffonts.googleapis.com%2Fcss%3Ffamily%3DArchitects%2BDaughter;fontSize=24;" parent="1" vertex="1">
                    <mxGeometry x="2068" y="-80" width="280" height="30" as="geometry"/>
                </mxCell>
                <mxCell id="26" value="" style="curved=1;endArrow=classic;html=1;sketch=1;hachureGap=4;jiggle=2;curveFitting=1;fontFamily=Architects Daughter;fontSource=https%3A%2F%2Ffonts.googleapis.com%2Fcss%3Ffamily%3DArchitects%2BDaughter;fontSize=16;fillColor=#e51400;strokeColor=#B20000;" parent="1" edge="1">
                    <mxGeometry width="50" height="50" relative="1" as="geometry">
                        <mxPoint x="2510" y="60" as="sourcePoint"/>
                        <mxPoint x="2330" y="-80" as="targetPoint"/>
                        <Array as="points">
                            <mxPoint x="2550"/>
                            <mxPoint x="2530" y="-60"/>
                            <mxPoint x="2470" y="-120"/>
                            <mxPoint x="2380" y="-110"/>
                        </Array>
                    </mxGeometry>
                </mxCell>
                <mxCell id="27" value="Implementado Controller&lt;br style=&quot;font-size: 24px;&quot;&gt;" style="text;html=1;strokeColor=none;fillColor=none;align=center;verticalAlign=middle;whiteSpace=wrap;rounded=0;sketch=1;hachureGap=4;jiggle=2;curveFitting=1;fontFamily=Architects Daughter;fontSource=https%3A%2F%2Ffonts.googleapis.com%2Fcss%3Ffamily%3DArchitects%2BDaughter;fontSize=24;" parent="1" vertex="1">
                    <mxGeometry x="1860" y="-230" width="280" height="30" as="geometry"/>
                </mxCell>
                <mxCell id="28" value="" style="curved=1;endArrow=classic;html=1;sketch=1;hachureGap=4;jiggle=2;curveFitting=1;fontFamily=Architects Daughter;fontSource=https%3A%2F%2Ffonts.googleapis.com%2Fcss%3Ffamily%3DArchitects%2BDaughter;fontSize=16;fillColor=#e3c800;strokeColor=#B09500;" parent="1" edge="1">
                    <mxGeometry width="50" height="50" relative="1" as="geometry">
                        <mxPoint x="2300" y="-90" as="sourcePoint"/>
                        <mxPoint x="2120" y="-230" as="targetPoint"/>
                        <Array as="points">
                            <mxPoint x="2340" y="-150"/>
                            <mxPoint x="2320" y="-210"/>
                            <mxPoint x="2260" y="-270"/>
                            <mxPoint x="2170" y="-260"/>
                        </Array>
                    </mxGeometry>
                </mxCell>
                <mxCell id="29" value="&lt;font style=&quot;font-size: 24px;&quot;&gt;Na pratica o que acontece é que a requisição chega no controller,&lt;br&gt;ele define como vai tratar:&lt;/font&gt;" style="text;html=1;strokeColor=none;fillColor=none;align=left;verticalAlign=middle;whiteSpace=wrap;rounded=0;sketch=1;hachureGap=4;jiggle=2;curveFitting=1;fontFamily=Architects Daughter;fontSource=https%3A%2F%2Ffonts.googleapis.com%2Fcss%3Ffamily%3DArchitects%2BDaughter;fontSize=20;" parent="1" vertex="1">
                    <mxGeometry x="1810" y="-550" width="650" height="100" as="geometry"/>
                </mxCell>
                <mxCell id="30" value="" style="shape=flexArrow;endArrow=classic;html=1;sketch=1;hachureGap=4;jiggle=2;curveFitting=1;fontFamily=Architects Daughter;fontSource=https%3A%2F%2Ffonts.googleapis.com%2Fcss%3Ffamily%3DArchitects%2BDaughter;fontSize=16;fillColor=#d80073;strokeColor=#A50040;" parent="1" edge="1">
                    <mxGeometry width="50" height="50" relative="1" as="geometry">
                        <mxPoint x="2090" y="-470" as="sourcePoint"/>
                        <mxPoint x="2090" y="-250" as="targetPoint"/>
                    </mxGeometry>
                </mxCell>
                <mxCell id="31" value="O serviço chamado passa então a consultar o repositorio e faz o&amp;nbsp;&lt;br style=&quot;font-size: 24px;&quot;&gt;que deve ser feito salva, pega , atualiza etc ..." style="text;html=1;strokeColor=none;fillColor=none;align=left;verticalAlign=middle;whiteSpace=wrap;rounded=0;sketch=1;hachureGap=4;jiggle=2;curveFitting=1;fontFamily=Architects Daughter;fontSource=https%3A%2F%2Ffonts.googleapis.com%2Fcss%3Ffamily%3DArchitects%2BDaughter;fontSize=24;" parent="1" vertex="1">
                    <mxGeometry x="2360" y="-400" width="650" height="100" as="geometry"/>
                </mxCell>
                <mxCell id="32" value="" style="shape=flexArrow;endArrow=classic;html=1;sketch=1;hachureGap=4;jiggle=2;curveFitting=1;fontFamily=Architects Daughter;fontSource=https%3A%2F%2Ffonts.googleapis.com%2Fcss%3Ffamily%3DArchitects%2BDaughter;fontSize=16;fillColor=#d80073;strokeColor=#A50040;" parent="1" edge="1">
                    <mxGeometry width="50" height="50" relative="1" as="geometry">
                        <mxPoint x="2680" y="-280" as="sourcePoint"/>
                        <mxPoint x="2550" y="10" as="targetPoint"/>
                        <Array as="points">
                            <mxPoint x="2740" y="-180"/>
                        </Array>
                    </mxGeometry>
                </mxCell>
                <mxCell id="33" value="" style="shape=flexArrow;endArrow=classic;html=1;sketch=1;hachureGap=4;jiggle=2;curveFitting=1;fontFamily=Architects Daughter;fontSource=https%3A%2F%2Ffonts.googleapis.com%2Fcss%3Ffamily%3DArchitects%2BDaughter;fontSize=16;fillColor=#d80073;strokeColor=#A50040;" parent="1" edge="1">
                    <mxGeometry width="50" height="50" relative="1" as="geometry">
                        <mxPoint x="2110" y="-250" as="sourcePoint"/>
                        <mxPoint x="2350" y="-330" as="targetPoint"/>
                    </mxGeometry>
                </mxCell>
            </root>
        </mxGraphModel>
    </diagram>
</mxfile>